<svg t="1589351585864" class="icon" viewBox="0 0 1024 1024" version="1.1" xmlns="http://www.w3.org/2000/svg" p-id="13770" width="200" height="200"><path d="M595.2 384c12.8-12.8 12.8-35.2 0-48-12.8-12.8-35.2-12.8-48 0L326.4 550.4a129.6 129.6 0 0 0 0 188.8c54.4 51.2 144 51.2 198.4 0l345.6-332.8c80-80 80-204.8 0-284.8s-214.4-80-294.4 0L176 502.4C67.2 608 67.2 777.6 176 883.2c108.8 105.6 284.8 105.6 393.6 0l220.8-214.4c12.8-12.8 12.8-35.2 0-48-12.8-12.8-35.2-12.8-48 0L521.6 835.2c-80 80-214.4 80-294.4 0-80-80-80-204.8 0-284.8l393.6-380.8c54.4-51.2 144-51.2 198.4 0s54.4 137.6 0 188.8L473.6 691.2c-25.6 25.6-70.4 25.6-99.2 0-25.6-25.6-25.6-67.2 0-96L595.2 384z" fill="#ffffff" p-id="13771"></path></svg>