<svg t="1589350357636" class="icon" viewBox="0 0 1024 1024" version="1.1" xmlns="http://www.w3.org/2000/svg" p-id="5140" width="328" height="328"><path d="M512 512m-448 0a448 448 0 1 0 896 0 448 448 0 1 0-896 0Z" fill="#ffffff" p-id="5141" data-spm-anchor-id="a313x.7781069.0.i30" class=""></path><path d="M518.4 416.2c15.6-3.2 27.5-16.5 27.5-33 0-18.8-15.1-33.8-33.8-33.8s-33.8 15.1-33.8 33.8c0 15.6 10.5 28.3 24.7 32.5l-82.4 144.6-91.9-80.5c8.2-5 13.7-13.7 13.7-23.8 0-15.6-12.8-27.9-28.3-27.9s-28.4 12.4-28.4 27.9 12.8 27.9 28.3 27.9c4.1 0 7.8-0.9 11.4-2.3L356.9 639c15.2 20.6 78.8 35.7 155.2 35.7 74.6 0 137.3-16 154.1-35.7l38.4-155.1-91.1 77.8-95.1-145.5z m191.7 11.9c-15.6 0-28.3 12.4-28.3 27.9s12.8 27.9 28.3 27.9 28.3-12.4 28.3-27.9-12.8-27.9-28.3-27.9z" fill="#2c2c2c" p-id="5142" data-spm-anchor-id="a313x.7781069.0.i31" class="selected"></path></svg>