<svg t="1589351515872" class="icon" viewBox="0 0 1024 1024" version="1.1" xmlns="http://www.w3.org/2000/svg" p-id="12976" width="200" height="200"><path d="M807 415.5V288.2C807 130.9 679.7 1.1 519.9 1.1c-157.3 0-287.1 127.3-287.1 287.1v127.3c-52.4 0-94.9 42.4-94.9 94.9V735c0 157.3 127.3 287.1 287.1 287.1h192.2c157.3 0 287.1-127.3 287.1-287.1V510.3c0-52.4-42.4-94.8-97.3-94.8zM297.8 288.2C297.8 165.8 397.6 66 519.9 66s222.2 99.8 222.2 222.2v127.3h-64.9V288.2c0-87.4-72.4-159.8-159.8-159.8s-159.8 72.4-159.8 159.8v127.3H297V288.2h0.8z m351.9 0v127.3H392.6V288.2c0-69.9 57.4-127.3 127.3-127.3s129.8 54.9 129.8 127.3z m189.7 317V735c0 122.3-99.8 222.2-222.2 222.2H425.1c-122.3 0-222.2-99.8-222.2-222.2V527.8c0-17.5 15-32.5 32.5-32.5H812c17.5 0 27.5 15 27.5 32.5v77.4h-0.1z m0 0" fill="#ffffff" p-id="12977"></path><path d="M522.4 605.2c-34.9 0-64.9 27.5-64.9 64.9 0 20 10 54.9 22.5 84.9 7.5 22.5 20 42.4 42.4 42.4 25 0 34.9-17.5 42.4-42.4 10-30 20-64.9 20-84.9 0-35-27.4-64.9-62.4-64.9z m0 0" fill="#ffffff" p-id="12978"></path></svg>