<svg t="1589351342356" class="icon" viewBox="0 0 1137 1024" version="1.1" xmlns="http://www.w3.org/2000/svg" p-id="11285" width="200" height="200"><path d="M1135.142452 361.58628c0-57.196057-46.96342-103.728338-104.689952-103.728338l-30.177676 0c17.059174-26.554471 26.182729-57.38756 26.182729-89.711715 0.003072-44.940856-17.691033-87.18735-49.821636-118.9585-32.078374-31.719945-74.707875-49.187728-120.035835-49.187728-43.922918 0-84.252328 19.345951-119.868909 57.499185-23.783302 25.479184-45.446753 59.392715-64.514154 100.969459-17.11345-5.294509-35.72411-8.054412-54.706511-8.054412-19.031558 0-37.644265 2.754783-54.716752 8.042123-19.069449-41.573671-40.729827-75.481058-64.511081-100.95717-35.615557-38.153234-75.943943-57.499185-119.864813-57.499185-77.72892 0-145.290745 52.34088-164.2967 127.28327-1.192033 4.699517-0.407585 9.682704 2.171056 13.788253 2.578641 4.105549 6.726177 6.977077 11.476898 7.944836 12.89218 2.625749 26.425436 6.186485 40.225978 10.582873 4.684155 1.493113 9.778968 0.972879 14.065779-1.435764 4.286811-2.408643 7.38159-6.48859 8.543924-11.265937 9.871136-40.558805 46.122648-68.885964 88.156133-68.885964 55.479694 0 97.333964 76.670018 119.09163 127.878262-3.066104 6.287869-5.029271 13.069347-5.858779 20.262505-0.098312 0.412705-0.183311 0.830531-0.252948 1.251429-0.247828 1.030227-0.650293 2.929901-0.650293 5.285292 0 8.050316 1.776784 15.914249 5.246377 23.433066-25.727012-0.641076-70.702687-10.009387-142.334217-49.166222C284.052714 168.690016 218.537007 149.286716 159.276399 149.286716c-96.788128 0-144.740812 51.962993-150.014839 58.040925-0.124938 0.142348-0.247828 0.287767-0.36867 0.434211-6.680093 8.138387-9.757462 18.377169-8.66579 28.832031 1.093721 10.46408 6.2254 19.853896 14.460051 26.446942 6.997559 5.595589 15.792383 8.677055 24.765398 8.677055 11.874242 0 23.001927-5.234088 30.541226-14.360715 1.476728-1.69793 27.368617-30.395806 87.911377-30.395806 45.805182 0 98.956111 16.367918 157.964795 48.641892 71.328402 39.079005 133.05705 58.892962 183.469581 58.892962 6.2254 0 12.604413-0.403489 19.568177-1.251429 2.877673 1.943709 6.318592 3.038454 9.925412 3.038454l49.222547 0 0 136.466222L178.781083 472.749461l0-111.231794c0-13.914215 11.567017-25.234428 25.785385-25.234428l144.292264 0c0.00512 0 0.011265-0.001024 0.017409 0 9.792281 0 17.730972-7.938691 17.730972-17.730972 0-7.363156-4.487531-13.677652-10.876785-16.357677-16.577855-7.68267-30.463396-14.64029-43.685331-21.891821-14.312583-7.804536-28.696852-14.717096-43.974122-21.130928-2.173104-0.912458-4.505965-1.382512-6.863404-1.382512L204.566468 257.789329c-57.72858 0-104.694048 46.532281-104.694048 103.728338l0 171.927142c0 9.792281 7.938691 17.730972 17.730972 17.730972l47.506184 0 0 369.091784c0 57.198105 46.966492 103.732434 104.695072 103.732434l695.545875 0c57.729604 0 104.695072-46.533305 104.695072-103.732434L1070.045595 551.387766l47.714073 0c4.708733 0 9.223915-1.873048 12.550137-5.205414 3.326221-3.332366 5.190052-7.852668 5.180836-12.561401L1135.142452 361.58628zM991.000729 551.241323l0 369.094857c0 13.915239-11.53527 25.234428-25.715747 25.234428L656.963304 945.570607 656.963304 551.241323 991.000729 551.241323zM1056.309571 361.58628l0 111.231794L657.03499 472.818074l0-136.465198 373.488173 0C1044.74153 336.352877 1056.309571 347.67309 1056.309571 361.58628zM652.285293 232.670622c-8.512177 2.07172-20.320878 3.739951-34.773761 3.739951-5.044633 0-10.108723-0.226322-15.126729-0.674871-1.922204-2.101418-4.027718-3.939647-6.311423-5.506494 6.261243-0.809026 13.444161-1.321067 21.438152-1.321067C631.962367 228.909166 643.773115 230.586614 652.285293 232.670622zM856.257015 78.012591c50.15139 0 90.953927 40.247484 90.953927 89.717859 0 49.468327-40.802537 89.713763-90.953927 89.713763L738.192539 257.444213c3.771698-7.893631 5.729744-16.221474 5.729744-24.753109 0-9.199337-2.292922-18.360783-6.695454-26.944647C759.002929 154.539238 800.831597 78.012591 856.257015 78.012591zM578.125302 551.241323l0 394.330309L269.804648 945.571631c-14.179453 0-25.715747-11.320213-25.715747-25.234428L244.088901 551.241323 578.125302 551.241323z" p-id="11286" fill="#ffffff"></path></svg>