<svg t="1589351727131" class="icon" viewBox="0 0 1024 1024" version="1.1" xmlns="http://www.w3.org/2000/svg" p-id="15304" width="200" height="200"><path d="M1018.094933 407.7056L860.177067 43.0592A71.253333 71.253333 0 0 0 794.794667 0H227.84c-28.501333 0-54.186667 17.015467-65.4848 43.178667L5.768533 407.825067A72.738133 72.738133 0 0 0 0 436.189867v516.266666C0 991.914667 31.9488 1024 71.287467 1024h881.425066C992.0512 1024 1024 991.914667 1024 952.456533V436.3264c0-9.8816-1.962667-19.626667-5.905067-28.6208zM529.066667 68.266667h217.088c28.928 0 55.108267 16.6912 66.628266 42.513066L938.666667 392.533333H529.066667V68.266667zM209.066667 110.8992C220.4672 84.957867 246.442667 68.266667 275.2512 68.266667H477.866667v324.266666H85.333333l123.733334-281.634133zM955.733333 884.309333C955.733333 923.716267 923.921067 955.733333 884.770133 955.733333H139.229867C100.078933 955.733333 68.266667 923.716267 68.266667 884.309333V460.8h887.466666v423.509333zM510.993067 853.333333H820.224C838.485333 853.333333 853.333333 838.0416 853.333333 819.2s-14.848-34.133333-33.1264-34.133333H510.976C492.714667 785.066667 477.866667 800.3584 477.866667 819.2s14.848 34.133333 33.1264 34.133333z m120.3712-153.6h187.938133c18.773333 0 34.030933-15.3088 34.030933-34.133333s-15.2576-34.133333-34.030933-34.133333H631.364267c-18.773333 0-34.030933 15.3088-34.030934 34.133333a33.962667 33.962667 0 0 0 34.030934 34.133333z" fill="#ffffff" p-id="15305"></path></svg>